<svg xmlns="http://www.w3.org/2000/svg" viewBox="0 0 41.58 72.92"><defs><style>.a{fill:#355cd7;}.b{fill:#fff;}</style></defs><title>location_icon1</title><path class="a" d="M306.22,425.37c-2.35-4-4.62-7.83-6.91-11.68-3.08-5.2-6.16-10.4-8.82-15.83a46.73,46.73,0,0,1-4.81-14,20.41,20.41,0,0,1,4.6-16.53,20,20,0,0,1,16.52-7.48,20.66,20.66,0,0,1,19.6,15.74c1.4,5.48.3,10.73-1.63,15.88-2.37,6.37-5.75,12.22-9.13,18.08-2.86,5-5.82,9.86-8.74,14.79C306.7,424.63,306.49,425,306.22,425.37Z" transform="translate(-285.45 -359.8)"/><path class="a" d="M311.18,421.86c.52-1,.79-2.05,2.36-1.65a26,26,0,0,1,7.38,2.57,6.72,6.72,0,0,1,1.64,1.36,3,3,0,0,1-.28,4.34,14.65,14.65,0,0,1-6.75,3.13,38.58,38.58,0,0,1-21.3-.82,11.21,11.21,0,0,1-3.74-2.05c-1.87-1.58-1.86-3.62,0-5.18,2.08-1.72,4.6-2.43,7.15-3.07l.81-.19c1.83-.41,2-.32,2.76,1.57a21.11,21.11,0,0,0-5.67,1.71c-1.05.56-2.14,1.19-2.18,2.49s1,2.09,2.15,2.62c4,1.91,8.35,2.22,12.73,2a25,25,0,0,0,7.59-1.47A8,8,0,0,0,318,428c1.44-1.19,1.41-2.65-.11-3.77a13.52,13.52,0,0,0-5.18-2C312.25,422.06,311.75,422,311.18,421.86Z" transform="translate(-285.45 -359.8)"/><path class="a" d="M306.24,429.13a14.16,14.16,0,0,1-6-.94c-1-.38-2.09-.86-2.12-2s1.13-1.59,2-2.06c.21-.11.45-.16.66-.26,1-.45,1.73-.36,2.16.78a7.26,7.26,0,0,0,.85,1.44,2.87,2.87,0,0,0,4.69.11c.24-.32.38-.72.64-1,.46-.53.44-1.7,1.36-1.56,1.44.23,3,.64,3.67,2.11.52,1.07-.44,1.6-1.16,2a11.55,11.55,0,0,1-5,1.36C307.45,429.17,306.84,429.13,306.24,429.13Z" transform="translate(-285.45 -359.8)"/><path class="b" d="M318.24,380.09a12,12,0,1,1-12.12-12A12,12,0,0,1,318.24,380.09Z" transform="translate(-285.45 -359.8)"/></svg>