<?xml version="1.0" encoding="utf-8"?>
<!-- Generator: Adobe Illustrator 22.0.0, SVG Export Plug-In . SVG Version: 6.00 Build 0)  -->
<svg version="1.1" id="Layer_1" xmlns="http://www.w3.org/2000/svg" xmlns:xlink="http://www.w3.org/1999/xlink" x="0px" y="0px"
	 viewBox="0 0 612 792" style="enable-background:new 0 0 612 792;" xml:space="preserve">
<style type="text/css">
	.st0{fill:#FFFFFF;}
	.st1{fill:#DD2259;}
</style>
<g>
	<path class="st0" d="M306.2,450.2c-17.7,0-35.4,0-53,0c-0.8,0-1-0.1-1-1c0-35.4,0-70.7,0-106.1c0-0.9,0.2-1,1.1-1
		c35.3,0,70.6,0,105.9,0c0.8,0,1.1,0.1,1.1,1c0,35.4,0,70.7,0,106.1c0,0.8-0.2,1-1,1C341.6,450.2,323.9,450.2,306.2,450.2z"/>
	<path class="st1" d="M306.2,425.4c-2.3-4-4.6-7.8-6.9-11.7c-3.1-5.2-6.2-10.4-8.8-15.8c-2.2-4.5-4.1-9.1-4.8-14
		c-0.8-6.2,0.6-11.8,4.6-16.5c4.3-5.1,9.9-7.7,16.5-7.5c9.5,0.3,17.3,6.7,19.6,15.7c1.4,5.5,0.3,10.7-1.6,15.9
		c-2.4,6.4-5.8,12.2-9.1,18.1c-2.9,5-5.8,9.9-8.7,14.8C306.7,424.6,306.5,425,306.2,425.4z"/>
	<path class="st1" d="M311.2,421.9c0.5-1,0.8-2.1,2.4-1.7c2.5,0.6,5.1,1.2,7.4,2.6c0.6,0.4,1.2,0.8,1.6,1.4c1.2,1.4,1.1,3.1-0.3,4.3
		c-1.9,1.7-4.3,2.6-6.7,3.1c-7.2,1.7-14.3,1.5-21.3-0.8c-1.4-0.5-2.6-1.1-3.7-2c-1.9-1.6-1.9-3.6,0-5.2c2.1-1.7,4.6-2.4,7.2-3.1
		c0.3-0.1,0.5-0.1,0.8-0.2c1.8-0.4,2-0.3,2.8,1.6c-1.9,0.4-3.9,0.8-5.7,1.7c-1,0.6-2.1,1.2-2.2,2.5c0,1.4,1,2.1,2.1,2.6
		c4,1.9,8.4,2.2,12.7,2c2.6-0.1,5.1-0.5,7.6-1.5c0.8-0.3,1.5-0.7,2.2-1.2c1.4-1.2,1.4-2.6-0.1-3.8c-1.5-1.1-3.4-1.6-5.2-2
		C312.3,422.1,311.7,422,311.2,421.9z"/>
	<path class="st1" d="M306.2,429.1c-2.1,0.1-4.1-0.2-6-0.9c-1-0.4-2.1-0.9-2.1-2c0-1.2,1.1-1.6,2-2.1c0.2-0.1,0.4-0.2,0.7-0.3
		c1-0.5,1.7-0.4,2.2,0.8c0.2,0.5,0.5,1,0.8,1.4c1.2,1.6,3.5,1.7,4.7,0.1c0.2-0.3,0.4-0.7,0.6-1c0.5-0.5,0.4-1.7,1.4-1.6
		c1.4,0.2,3,0.6,3.7,2.1c0.5,1.1-0.4,1.6-1.2,2c-1.5,0.9-3.3,1.2-5,1.4C307.4,429.2,306.8,429.1,306.2,429.1z"/>
	<path class="st0" d="M318.2,380.1c0,6.7-5.4,12.1-12,12c-6.6,0-12-5.4-12-12.1c0-6.6,5.3-12,11.9-12
		C312.9,368.1,318.2,373.3,318.2,380.1z"/>
</g>
</svg>
